<svg xmlns="http://www.w3.org/2000/svg" xmlns:xlink="http://www.w3.org/1999/xlink"
  data-name="Calque 1" preserveAspectRatio="xMidYMid meet" version="1.0"
  viewBox="3.9 143.2 493 229.0" zoomAndPan="magnify" style="fill: rgb(0, 0, 0);"
  original_string_length="13192" width="555.1227363731036px" height="259.39371499615936px"
  stroke="#68967a" stroke-width="1%">
  <g>
    <path
      d="M494.917,251.535c0,6.716.006,11.902-.002,17.088-.006,4.006-1.293,7.464-4.022,10.495-2.448,2.718-4.522,5.76-6.924,8.536-7.064,8.164-15.622,14.405-25.009,19.563-13.978,7.682-28.977,12.671-44.437,16.307-13.491,3.174-27.08,5.916-40.804,7.896-5.481.791-11.002,1.349-16.521,1.818-14.259,1.213-28.54,1.921-42.86,1.767-9.306-.1-18.571-.808-27.841-1.52-7.042-.541-14.109-.911-21.05-2.263-4.646-.905-9.234-2.122-13.816-3.323-1.439-.377-2.512-.18-3.723.685-13.851,9.896-28.948,17.366-44.979,23.023-4.89,1.725-9.71,3.646-14.591,5.399-18.172,6.526-36.924,10.66-56.028,13.183-8.147,1.076-16.362,1.951-24.595,1.625-11.959-.474-23.944-.682-35.765-3.008-15.045-2.96-29.233-8.183-42.712-15.454-4.302-2.32-7.261-5.701-9.116-10.15-3.317-7.958-5.311-16.314-7.347-24.648-2.609-10.68-5.245-21.359-7.554-32.106-1.182-5.503-1.272-11.178-.787-16.808.314-3.65.847-7.277,1.666-10.858,2.28-9.977,6.815-18.957,12.025-27.669,7.261-12.14,17.06-22.014,27.701-31.111,10.905-9.323,22.704-17.397,35.232-24.394,6.492-3.627,13.345-6.5,20.223-9.273,7.129-2.875,14.412-5.366,21.586-8.133,7.443-2.871,15.044-5.156,22.863-6.754,10.156-2.076,20.148-4.937,30.444-6.346,5.049-.691,10.103-1.354,15.211-1.378,5.179-.024,10.348-.228,15.538-.124,13.064.262,25.803,2.225,38.252,6.148,2.558.806,5.127,1.584,7.651,2.486,1.239.443,2.381.458,3.654.167,6.883-1.577,13.756-3.217,20.684-4.574,7.899-1.547,15.918-2.299,23.931-3.007,6.053-.536,12.116-.963,18.178-1.387,2.318-.162,4.646-.244,6.969-.253,6.708-.026,13.416.003,20.123.013,23.191.034,46.034,2.863,68.378,9.084,15.625,4.351,30.705,10.153,44.898,18.161,9.173,5.176,16.243,12.508,22.41,20.823,3.195,4.308,6.039,8.852,8.14,13.841,2.567,6.096,3.919,12.443,4.08,19.016.236,9.65.912,19.291.645,27.421ZM108.506,369.484c2.056,0,4.119.107,6.168-.018,10.356-.63,20.652-1.773,30.867-3.639,14.524-2.653,28.888-5.887,42.927-10.558,10.123-3.368,19.82-7.719,29.515-12.081,17.777-7.999,33.671-18.82,47.745-32.318,5.3-5.083,10.163-10.565,14.961-16.108,7.438-8.593,14.688-17.317,19.958-27.496,3.829-7.397,7.295-14.94,9.879-22.866,1.072-3.289,1.507-6.632.138-9.968-4.718-11.499-8.58-23.315-12.984-34.932-3.147-8.3-6.711-16.37-11.14-24.058-1.584-2.75-3.631-5.079-6.264-6.884-4.279-2.934-8.588-5.823-13.227-8.167-19.548-9.877-40.213-15.198-62.179-15.308-4.567-.023-9.114.244-13.666.461-6.077.291-12.114.985-18.104,2.042-9.248,1.633-18.321,4.094-27.533,5.892-8.634,1.685-16.984,4.254-25.149,7.497-4.735,1.88-9.516,3.644-14.287,5.43-8.637,3.233-17.037,7.006-25.115,11.436-8.478,4.65-16.472,10.09-24.189,15.905-14.737,11.106-27.976,23.656-37.724,39.542-3.66,5.964-6.88,12.153-9.317,18.694-3.327,8.929-4.146,18.261-3.657,27.722.12,2.314.198,4.687.773,6.909,2.773,10.733,5.254,21.535,7.934,32.29,1.771,7.109,3.458,14.238,5.794,21.204,1.744,5.197,4.813,9.11,9.658,11.632,2.696,1.403,5.395,2.805,8.131,4.129,10.419,5.042,21.16,8.924,32.701,10.772,12.412,1.988,24.889,2.434,37.387,2.844ZM257.829,153.743c2.938,1.779,5.665,2.88,8.825,1.598.489-.198,1.044-.233,1.57-.34,11.663-2.367,23.445-3.849,35.289-4.972,12.201-1.157,24.411-2.005,36.668-1.863,5.627.065,11.247.441,16.866.848,9.639.699,19.218,1.812,28.708,3.647,14.857,2.872,29.466,6.778,43.793,11.576,14.24,4.769,27.636,11.298,38.756,21.748,5.438,5.11,9.61,11.058,11.816,18.239,1.492,4.858,2.204,9.846.48,14.768-1.697,4.844-4.193,9.261-8.055,12.806-7.03,6.452-14.676,11.983-23.409,15.92-14.393,6.488-29.267,11.531-44.712,14.861-11.027,2.378-22.183,3.828-33.404,4.916-11.751,1.14-23.514,1.936-35.321,2.025-4.203.032-8.42-.158-12.605.128-3.86.264-7.678-.043-11.513-.155-2.232-.065-4.431-.498-6.675-.563-2.077-.061-3.299.719-4.23,2.534-2.54,4.948-5.78,9.446-9.186,13.832-4.664,6.006-9.74,11.661-14.742,17.379-4.658,5.325-9.628,10.336-14.999,14.939-2.646,2.268-5.401,4.409-8.1,6.615-.409.334-.963.649-.911,1.244.06.687.738.671,1.235.783,3.835.871,7.645,1.885,11.515,2.554,7.493,1.295,15.083,1.744,22.659,2.302,11.592.854,23.186,1.681,34.816,1.439,11.528-.24,23.052-.677,34.543-1.676,5.518-.48,11.031-1.072,16.518-1.823,9.478-1.298,18.864-3.131,28.233-5.065,12.269-2.532,24.439-5.385,36.236-9.684,11.061-4.03,21.591-9.058,31.139-16.016,7.063-5.147,12.974-11.439,18.586-18.099,3.292-3.908,4.926-8.185,4.896-13.213-.021-3.486.066-6.974.014-10.46-.155-10.456-.502-20.911-.494-31.366.007-10.08-2.979-19.142-8.343-27.56-3.72-5.839-8.039-11.169-13.091-15.9-1.817-1.701-3.105-3.882-5.28-5.281-5.72-3.681-11.444-7.368-17.702-10.061-8.702-3.745-17.443-7.383-26.558-10.093-16.678-4.959-33.653-8.469-50.965-9.981-9.598-.838-19.255-1.382-28.922-1.23-4.469.07-8.941-.083-13.412-.107-1.429-.008-2.863.013-4.286.125-8.641.682-17.285,1.328-25.916,2.112-9.346.849-18.68,1.842-27.874,3.824-4.069.877-8.13,1.79-12.455,2.744ZM266.297,157.02c.115.722.444.887.756,1.034,4.47,2.106,8.463,4.984,12.551,7.713,4.186,2.794,7.295,6.504,9.762,10.854,4.115,7.256,7.435,14.852,10.173,22.723,1.262,3.628,2.719,7.187,4.047,10.793.444,1.205,1.112,1.574,2.443,1.384,9.931-1.419,19.934-1.696,29.947-1.633,3.304.021,6.606.275,9.91.37,9.386.269,18.748.876,28.033,2.297,20.165,3.087,40.103,7.184,59.57,13.407,8.908,2.847,17.47,6.391,25.1,11.861,1.802,1.292,2.083,1.015,3.455.022,4.068-2.947,7.802-6.273,11.168-9.998,2.491-2.757,4.504-5.857,5.228-9.531,1.21-6.144.316-12.102-2.291-17.777-3.543-7.712-8.583-14.03-15.953-18.62-8.304-5.172-16.739-10.005-25.989-13.219-15.298-5.314-30.925-9.493-46.755-12.889-11.908-2.554-23.993-3.768-36.139-4.531-12.516-.785-25.019-.511-37.504.38-8.82.63-17.614,1.617-26.415,2.495-7.02.701-13.993,1.755-21.096,2.863ZM457.947,240.373c-6.334-5.029-13.274-8.092-20.517-10.444-16.168-5.25-32.586-9.586-49.29-12.784-8.428-1.614-16.888-3.124-25.44-3.863-12.831-1.109-25.696-1.5-38.579-1.233-5.813.121-11.611.398-17.381,1.124-1.697.214-1.857.456-1.287,2.077,2.103,5.986,3.822,12.113,6.435,17.91,1.142,2.534,1.439,5.126,1.175,7.841-.36,3.696-1.609,7.14-3.014,10.529-1.881,4.541-3.773,9.079-5.934,13.499-.848,1.736-.636,2.049,1.152,2.197,4.189.347,8.381.551,12.587.407,4.287-.147,8.575-.358,12.863-.372,14.043-.047,28.039-.786,42.023-2.132,15.435-1.486,30.653-4.046,45.581-8.231,12.165-3.411,23.959-7.822,35.205-13.622,1.486-.767,3.012-1.507,4.419-2.902Z"
      style="fill: inherit;" />
  </g>
  <g>
    <path
      d="M82.182,321.226c1.406-1.009,2.667-.905,3.892-.908,4.919-.01,9.839.072,14.756-.016,25.343-.454,49.636-5.812,72.946-15.714,3.045-1.293,6.099-2.566,9.128-3.894,1.46-.64,2.872-1.389,4.383-2.127-.369-1.11-1.275-1.161-1.956-1.427-5.539-2.165-9.674-5.986-12.973-10.831-.779-1.145-1.151-2.341-1.246-3.738-.434-6.417-1.006-12.825-1.444-19.242-.183-2.673-.17-5.361-.225-8.042-.123-5.986.066-11.972-.327-17.961-.439-6.7.308-13.401.594-20.09.216-5.06,2.499-9.645,5.227-13.922.521-.817,1.256-1.512,1.506-2.553-.602-.712-1.302-.281-1.933-.131-12.979,3.073-25.739,6.877-38.236,11.54-14.944,5.576-29.365,12.269-43.103,20.396-10.734,6.35-20.93,13.418-29.625,22.453-7.101,7.379-12.982,15.687-18.508,24.276-4.192,6.516-7.535,13.389-9.55,20.888-.177.657-.236,1.434-1.063,1.872-1.059-.81-.683-1.929-.523-2.916.792-4.892,2.208-9.628,4.666-13.921,7.627-13.324,16.371-25.818,27.753-36.288,8.344-7.676,17.729-13.873,27.528-19.488,23.581-13.513,48.653-23.336,74.927-30.155,9.115-2.365,18.408-3.519,27.803-4.148,8.314-.556,16.624-.592,24.935-.412,13.914.301,27.603,2.27,40.996,6.12,5.36,1.541,10.376,3.878,15.149,6.749.383.23.757.477,1.127.727.967.652,1.516.299,1.672-.753.145-.971.178-1.958.292-2.934.051-.434.119-.893.779-1.186,1.032,1.086.784,2.416.623,3.685-.958,7.543-3.357,14.629-7.038,21.258-6.924,12.467-15.83,23.333-26.509,32.795-6.965,6.171-14.022,12.19-21.66,17.543-8.758,6.139-18.178,11.034-27.799,15.604-4.279,2.032-8.568,4.044-12.802,6.166-17.456,8.751-35.781,14.97-54.942,18.653-8.603,1.654-17.298,2.634-26.076,3.065-6.094.299-12.146.169-18.216-.15-1.573-.083-3.118-.254-4.929-.844ZM211.561,197.05c-3.877-.028-11.09.543-18.314.915-2.678.138-4.12,1.255-5.061,3.485-.311.738-.589,1.497-.799,2.268-1.431,5.258-1.147,10.414.894,15.486,3.645,9.06,10.191,15.603,18.085,21.001,1.046.715,1.902.547,2.935-.107,15.569-9.858,32.174-17.451,49.852-22.679,5.823-1.722,11.596-3.637,17.645-4.472.92-.127,2.2.216,2.453-1.077.245-1.248-1.048-1.503-1.82-2.016-7.042-4.681-14.942-7.193-23.108-8.95-12.98-2.792-26.14-3.832-42.762-3.853ZM171.472,222.433c-.108,5.538-.424,11.058-.397,16.603.068,14.308.541,28.591,1.332,42.871.05.902.096,1.774.649,2.55,3.941,5.535,9.056,9.582,15.349,12.143,1.151.468,2.238.405,3.326-.253,4.37-2.64,9.187-4.377,13.678-6.794,9.867-5.31,19.294-11.281,28.21-18.059.635-.483,1.572-.786,1.741-1.914-.593-.074-1.03-.14-1.469-.183-5.97-.585-11.901-1.384-17.636-3.241-10.108-3.272-19.062-8.556-26.931-15.661-8.519-7.692-15.306-16.508-17.852-28.063ZM251.144,256.268c-.108-.185-.215-.371-.323-.556-4.651-.173-9.22-.953-13.785-1.75-14.44-2.52-27.684-7.661-38.782-17.574-5.433-4.852-9.64-10.56-12.116-17.416-2.351-6.51-2.148-12.965,1.098-19.205.105-.201.013-.504.013-.887-1.724-.466-3.353.302-5.015.356-1.544.051-2.674.831-3.648,1.973-4.374,5.13-5.794,11.241-5.401,17.729.266,4.379,1.773,8.553,3.747,12.51,3.566,7.147,8.612,13.109,14.613,18.31,8.924,7.734,18.999,13.279,30.526,16.09,4.79,1.168,9.685,1.595,14.554,2.223,1.101.142,1.869-.4,2.625-1.067,2.812-2.484,5.648-4.941,8.447-7.44,1.185-1.058,2.3-2.194,3.446-3.295ZM251.672,254.043c1.276.294,2.075-.394,2.864-1.173,2.867-2.833,5.477-5.893,7.929-9.081,6.12-7.959,11.758-16.211,15.103-25.795.311-.892,1.122-1.9.43-2.766-.718-.898-1.843-.277-2.767-.064-12.215,2.82-24.118,6.636-35.742,11.316-9.805,3.948-19.101,8.928-28.279,14.134-2.022,1.147-2.001,1.554.105,2.8,1.848,1.092,3.779,2.023,5.767,2.842,11.105,4.571,22.753,6.727,34.59,7.787Z"
      style="fill: inherit;" />
  </g>
  <g>
    <path
      d="M292.509,199.673c1.171,1.527,1.037,2.775.921,4.003-.771,8.165-3.056,15.934-6.055,23.534-4.227,10.712-10.712,19.934-18.325,28.469-10.623,11.911-22.271,22.692-35.04,32.268-5.518,4.138-11.372,7.743-17.403,11.07-.69.381-1.367.861-2.355.745-.266-.758.326-1.128.792-1.438,1.561-1.04,3.14-2.057,4.752-3.016,17.13-10.189,31.88-23.214,45.291-37.854,4.594-5.015,9.04-10.141,12.788-15.829,7.238-10.985,11.778-23.012,13.834-35.995.286-1.806-.095-3.709.8-5.959Z"
      style="fill: inherit;" />
  </g>
  <g>
    <path
      d="M114.187,330.72c1.467-1.066,2.816-1.124,4.106-1.356,10.107-1.819,20.334-2.947,30.365-5.199,17.985-4.039,34.966-10.792,51.376-19.08,1.185-.598,2.284-1.399,3.797-1.702.075.86-.594,1.079-1.041,1.38-3.793,2.56-7.941,4.469-12.049,6.434-13.341,6.382-27.139,11.516-41.573,14.828-10.286,2.361-20.752,3.672-31.196,5.091-1.12.152-2.294.307-3.785-.395Z"
      style="fill: inherit;" />
  </g>
  <g>
    <path
      d="M99.497,332.163c-1.041,1.144-2.295,1.214-3.485,1.05-4.436-.614-8.915-.248-13.364-.793-8.529-1.045-16.963-2.546-25.196-4.982-7.71-2.281-15.305-4.94-22.647-8.247-7.507-3.381-14.304-7.762-19.236-14.53-1.678-2.302-3.059-4.823-4.547-7.261-.312-.512-.713-1.053-.389-1.738.713-.42.96.221,1.234.604.674.944,1.346,1.9,1.907,2.914,4.601,8.326,11.723,13.825,20.137,17.8,7.6,3.591,15.397,6.766,23.47,9.087,10.74,3.087,21.652,5.384,32.914,5.541,3.07.043,6.136.362,9.204.555Z"
      style="fill: inherit;" />
  </g>
  <g>
    <path
      d="M99.287,176.821c8.001-7.764,60.203-24.988,69.706-22.926-.996,1.111-2.267,1.159-3.422,1.368-6.769,1.221-13.468,2.74-20.1,4.568-13.638,3.76-26.798,8.787-39.585,14.816-1.534.723-3.079,1.424-4.639,2.089-.544.232-1.114.633-1.96.086Z"
      style="fill: inherit;" />
  </g>
  <g>
    <path
      d="M82.325,185.989c-.729,1.371-1.709,2.001-2.642,2.658-8.258,5.816-16.5,11.658-24.343,18.028-9.81,7.968-18.8,16.771-26.644,26.704-.885,1.12-1.648,2.336-2.491,3.49-.293.4-.503.991-1.354.744-.149-1.04.561-1.782,1.051-2.572,2.176-3.513,4.974-6.543,7.677-9.634,9.217-10.541,19.624-19.779,30.93-28.022,4.695-3.423,9.434-6.783,14.317-9.935.953-.615,1.832-1.432,3.5-1.462Z"
      style="fill: inherit;" />
  </g>
  <g>
    <path
      d="M281.979,194.174c-.864-.686-.806-1.714-.916-2.638-.728-6.128-2.924-11.578-7.308-16.039-2.639-2.685-5.515-5.088-8.603-7.24-4.948-3.448-10.367-5.964-15.972-8.129-1.895-.732-3.919-1.212-5.854-2.644,1.313-.798,2.383-.291,3.399-.003,7.196,2.043,13.936,5.079,20.036,9.437,4.831,3.451,9.184,7.378,12.337,12.514,2.518,4.101,3.34,8.617,3.571,13.307.017.341-.109.702-.227,1.033-.049.139-.249.224-.464.403Z"
      style="fill: inherit;" />
  </g>
  <g>
    <path
      d="M29.181,304.429c-1.084.093-1.586-.478-2.136-.901-7.828-6.018-12.313-13.952-13.627-23.721-1.134-8.423-.759-16.736,1.712-24.905.426-1.407.633-2.944,1.881-3.993.951.502.475,1.14.347,1.669-.586,2.427-1.22,4.843-1.816,7.268-1.867,7.597-1.55,15.248-.154,22.832,1.461,7.939,5.608,14.382,11.917,19.437.722.578,1.725.986,1.876,2.313Z"
      style="fill: inherit;" />
  </g>
  <g>
    <path
      d="M225.331,154.796c-12.099-1.506-24.006-2.732-36.058-2.341.963-.967,2.13-1.073,3.292-1.152,8.485-.577,16.918-.021,25.314,1.229,1.851.276,3.7.565,5.542.89.663.117,1.448.101,1.91,1.374Z"
      style="fill: inherit;" />
  </g>
  <g>
    <path
      d="M71.282,319.289c-5.334,1.401-25.837-4.834-29.87-8.915,1.446-.333,2.516.415,3.556.9,6.669,3.105,13.728,4.936,20.862,6.551,1.683.381,3.511.245,5.453,1.464Z"
      style="fill: inherit;" />
  </g>
</svg>