<svg xmlns="http://www.w3.org/2000/svg" xmlns:xlink="http://www.w3.org/1999/xlink"
  preserveAspectRatio="xMidYMid meet" version="1.0" viewBox="-1.7 -0.8 457.8 369.2"
  zoomAndPan="magnify" style="fill: #68967a;" original_string_length="8396"
  width="139.60925845708002px" height="112.44891181179355px" stroke="#68967a" stroke-width="4">
  <g>
    <path
      d="M243.4,35.8c-4.5,0-8-.7-10.1-2.3-.4-.3-.6-.9-.5-1.4,0-.1,0-.3,0-.4,2.2-10.8,43.6-27.4,66.4-30.9,10.3-1.6,16.2-.6,18.2,2.9.2.3.2.6.2.9-1.1,8.3-20.7,17-29.1,20.3-15.4,6.1-33.5,10.9-45.2,10.9ZM236,31.6c6.5,3.4,29.4-.7,51.5-9.5,15.3-6.1,25.8-12.8,27.1-17.4-1.7-1.8-7.1-2.2-14.8-1-24,3.7-60.4,19.8-63.7,27.9ZM336.9,330c-2.6,0-5.2-.2-7.8-.7-2.1-.4-4.7-1-6.9-2.6-2.4-1.8-3.7-4.5-3.5-7.2.3-2.6,2-4.6,3.6-6.2,13.6-14.2,30.8-22.6,46.9-29.5-.6-1.4-1.1-2.7-1.6-4.1-.4-1-.8-2.1-1.2-3.1-1.3-3.5-2.5-7.2-3.9-11.6-5.6-19.5-12.5-42-22.6-62.9-6.1-13.6-10-22.5-24.5-27.3-2.7-1-5.6-1.9-8.3-2.7-6.6-2.1-13.4-4.2-19.5-7.8-39.6-22.2-49.9-72.3-57.5-108.9,0-.4-.2-.9-.3-1.3-.7-3.7-1.6-8.3-.2-11.7.8-1.7,2-2,2.7-2,1.5,0,3,1,4.1,3,1.7,3,2.5,6.4,3.3,9.8.3,1.3.6,2.6.9,3.8.5,1.9,1,3.9,1.6,5.8,7.7,29,15.7,59,38.2,79.1,6.4,5.5,16.1,13,27.2,14.5,10.1,1.5,20-1.3,28.1-8,7.7-6.4,13-15.9,14.5-26.1,1.4-7.5,2.1-18.2-2.2-27.2,0,4.2-.2,8.5-.8,12.7-1.6,13-8.6,25.1-18.7,32.2-8.3,5.9-17.8,7.8-27.6,5.7-7.4-1.8-14-6.5-18-12.8-1.5-2.3-2.5-4.7-3.5-7.1-1.2-2.7-2.3-5.2-3.9-7.5-1.7-2.4-3.8-4.4-6.1-6.5-1.4-1.3-2.8-2.6-4.1-4-3.8-3.9-5.7-8.7-5.2-13.2,0-.8.3-1.5.5-2.2-6.3-7.2-5.7-12.6-4-16.1,7.7-13.1,53.3-6.6,64.2-3.4,10.2,2.7,18,6.7,23.5,12.1-2.1-19.4-9.6-38.3-16.9-56.7-2-4.9-4-10.1-5.8-15.1,0-.1,0-.2,0-.3-.2-1.3-.6-4.8,1.8-5.6,3.4-1.1,7.5,5.7,7.9,6.5,7,11.4,14.7,27.9,21.1,45.2,9.4,25.2,19.8,62.4,1.6,94.8l-.2.4c-3.5,6.9-7.1,14-7.2,21.4-.1,4.4,1.3,8.7,2.9,12.7,2.3,5.6,4.6,11.3,6.9,16.8,8,19.8,16.3,40.3,27,59.1.4.7.2,1.6-.6,2-.7.4-1.6.2-2-.6-10.8-19-19.1-39.6-27.2-59.5-2.2-5.5-4.6-11.2-6.9-16.8-1.7-4.3-3.2-9-3.1-13.9.2-8,4.1-15.8,7.6-22.7l.2-.5c17.6-31.4,7.4-67.8-1.8-92.4-6.3-17.1-13.9-33.4-20.8-44.7-1.5-2.5-3.3-4.4-4.2-5,0,.3,0,1,0,2,1.8,4.9,3.8,9.9,5.8,14.8,7.9,19.9,16,40.4,17.5,61.7,1,1.3,1.8,2.7,2.6,4.2,5,9.9,4.3,21.6,2.8,29.7-1.6,10.8-7.3,21-15.5,27.9-8.7,7.3-19.5,10.3-30.4,8.7-11.9-1.7-22.1-9.5-28.8-15.3-23.2-20.7-31.6-52.5-39.1-80.5-.5-1.9-1-3.9-1.5-5.8-.4-1.3-.7-2.6-1-3.9-.7-3.1-1.5-6.4-2.9-9-.6-1.1-1.2-1.4-1.4-1.5,0,0,0,.1-.1.2-1,2.5-.2,6.6.4,9.9,0,.5.2.9.3,1.3,7.4,36,17.6,85.3,56,106.9,5.9,3.4,12.5,5.5,19,7.5,2.7.9,5.6,1.8,8.4,2.8,15.7,5.2,20.1,15.1,26.2,28.8,10.2,21.1,17.1,43.8,22.8,63.4,1.3,4.3,2.6,8,3.8,11.4.4,1,.8,2,1.2,3.1.5,1.3,1,2.7,1.5,4,1.7-.7,3.4-1.4,5.1-2.1,24.4-10.2,44.3-15.5,64.5-17.1,2.4-.2,4.7-.3,7,.3,3.8,1,5.3,3.3,5.9,5,1.4,3.9-.4,8.3-2.6,11.2-2.1,2.8-4.9,5-7.3,6.9-15.9,12.1-34.5,21.1-53.9,26-10.2,2.6-17.3.5-21.1-6.1-3.3-5.7-1.2-12.1,2.8-16.3-.7-1.2-1.4-2.5-2-3.8-15.9,6.8-32.7,15.1-45.9,28.8-1.3,1.4-2.6,2.8-2.8,4.5-.2,1.5.7,3.3,2.3,4.4,1.7,1.3,3.9,1.8,5.6,2.1,11.2,2,23-1.3,33.4-4.2.8-.2,1.6.2,1.9,1,.2.8-.2,1.6-1,1.9-8.4,2.4-17.6,5-27,5ZM374.2,292.9c-2.9,3.3-4.3,8.1-1.9,12.3,3.1,5.4,8.9,7,17.7,4.7,19-4.8,37.2-13.6,52.8-25.5,2.3-1.7,4.8-3.8,6.7-6.3,2.1-2.8,2.9-6.2,2.2-8.4-.5-1.5-1.8-2.6-3.8-3.1-1.9-.5-3.9-.4-6-.2-19.9,1.5-39.5,6.7-63.6,16.9-1.7.7-3.4,1.4-5.1,2.1.5,1,1,2,1.5,2.9,4.7-3.5,8.9-5.1,12.7-4.8,2.4,0,4.8,1.3,6.3,3.2,1.2,1.5,1.6,3.3,1.2,5.1-.9,3.2-3.3,5.5-6.7,6.4-4.2,1.1-8.9,0-11.7-2.9-.8-.8-1.6-1.6-2.3-2.5ZM376.4,290.8c.7.9,1.4,1.7,2.2,2.4,2.1,2.1,5.8,3,8.9,2.2,1.4-.4,3.8-1.4,4.5-4.2.2-.9,0-1.8-.7-2.6-.9-1.2-2.5-2-4.1-2-3.8-.3-8,2.1-10.8,4.3ZM263.2,94.9c-.4,3.5,1.2,7.6,4.4,10.8,1.2,1.3,2.6,2.6,4,3.8,2.3,2.1,4.7,4.3,6.5,7,1.8,2.5,3,5.3,4.2,8,1,2.4,2,4.6,3.3,6.7,3.6,5.7,9.4,9.9,16.1,11.5,8.9,1.9,17.6.1,25.2-5.2,9.4-6.6,15.9-17.9,17.4-30.1.8-5.9,1-11.7.6-17.5-5-6.4-13.3-11.2-24.7-14.2-13.1-3.8-54.8-8.3-60.8,2-2,3.8-.1,8,2.8,11.7,1.1-1.7,2.6-3.1,4.6-4.3,5-3.1,10.9-4.3,16.5-5.4,1.4-.3,2.8-.6,4.2-.9,1-.2,2-.4,3-.6,6.3-1.3,12.7-2.7,19.2-.9,5.1,1.4,8.7,4.8,10,9.4,1.3,4.6-.2,9.8-3.9,13.7-5.3,5.5-12.3,8.4-20.4,8.5-10.8.2-22.7-4.8-31.1-13-.4-.3-.7-.6-1-1ZM264.2,91.7c.7.7,1.4,1.4,2.1,2,7.9,7.6,18.9,12.3,29,12.1,7.2-.1,13.6-2.7,18.3-7.6,3-3.1,4.2-7.2,3.2-10.8-1-3.5-3.9-6.2-7.9-7.3-5.8-1.7-11.8-.4-17.7.9-1,.2-2,.4-3,.6-1.4.3-2.8.6-4.2.9-5.4,1.1-10.9,2.2-15.5,5-1.8,1.1-3.2,2.5-4.1,4.1ZM212,73.7c-11.6,0-29.8-4.8-45.2-10.9-8.4-3.3-27.9-12-29.1-20.3,0-.3,0-.6.2-.9,2-3.6,7.9-4.5,18.2-2.9,22.8,3.5,64.3,20.1,66.4,30.9,0,.1,0,.3,0,.4,0,.5-.1,1.1-.5,1.4-2,1.6-5.6,2.3-10.1,2.3ZM140.9,42.6c1.3,4.6,11.8,11.3,27.1,17.4,22.1,8.8,45,12.9,51.5,9.5-3.4-8.2-39.7-24.2-63.8-27.9-7.7-1.2-13.2-.8-14.8,1ZM119.3,368.1c-4.3,0-8.8-.6-12.9-1.4-8.3-2-18.2-5.4-26.5-11.2-1.5,0-3,0-4.7-.2,0,0,0,0-.1,0-22.6-4.2-45.9-10.3-63.6-25.5-9.2-7.9-13.2-16.2-10.8-22.1,2.2-5.4,9.5-7.9,20.4-7.1,16.4,1.9,33.1,6.2,49.9,12.8,7.3-16.4,14.1-33,20.8-49.1,2.9-7.1,5.9-14.4,8.9-21.7l.6-1.4c3.6-8.8,7.2-17.9,7.3-27.1,0-4-1-8.5-3.1-13.4-1.2-3.1-2.8-6.1-4.2-9-.7-1.3-1.3-2.6-2-4-18.7-39.1-1.3-83.3,16.4-121.6,2.7-5.3,5.2-10.4,8.4-15.2,0,0,3.9-6.3,7.2-5.3,1.4.4,2.1,1.9,1.9,4.3,0,.1,0,.2,0,.4-2.4,7.3-5.2,14.7-7.9,21.9-7.4,19.6-15.1,39.9-15.1,60.8.9-.3,1.9-.5,3-.6,3.6-.5,7.4-.3,11-.1,6.6.3,12.9.7,18.2-3,2.2-1.4,4.2-3,6.2-4.8,2.5-2.2,5.1-4.4,8.2-6,1.9-1.1,4.1-1.8,6.3-2,8.2-8.4,16.4-15.5,24.7-21.6,6.4-4.1,11-4.7,13.9-1.6,8.3,8.8-5.1,46.1-9.8,52.6-8.1,14-20.9,33.2-38.1,37.5-8.5,2.1-17.2.4-26-5.1-11.1-7.3-18.5-20.4-20-34.9-.2-2-.4-3.9-.5-5.8-1.2.8-2.2,1.7-2.9,2.8-2.1,3.3-2.3,8.1-.5,14.8,0,0,0,0,0,.1,2.2,12.4,5.9,20.9,11.6,26.9,15.2,16.5,37.4,16.4,56.6-.2,23.8-19.1,32.1-48.9,40.1-77.8,1.9-7,3.9-14.3,6.1-21.1,0,0,0-.2,0-.2,1.5-2.9,3.7-4.2,5.6-3.3,0,0,.2,0,.3.2,3.1,2.3,2.2,7.5,1.5,11.3,0,.4-.1.9-.2,1.2-5.6,27.5-11.7,53.8-23.8,75-13.5,23.7-33.6,38.6-61.3,45.5-5,1.9-8.9,4.2-12.1,7.3-6.9,6.7-10.4,16-13.7,24.9-1,2.7-2,5.4-3.1,8.1-8.6,21-16,42.5-22.7,62.6,0,0,0,0,0,0v.2c-.7,1.4-1.2,2.7-1.7,4.1,0,.2-.2.4-.2.6,12.3,5.9,24.7,12.9,37.1,21.2,7.6,4.6,14.5,12.4,11.2,20.2,0,0,0,.1,0,.2-2.9,4.7-9,6.2-15.8,6.2ZM84.5,355c7.3,4.4,15.5,7.1,22.5,8.8,6.2,1.2,21.2,3.3,25.5-3.3,2.5-6-3.8-12.5-10.1-16.3-12.2-8.2-24.4-15.2-36.6-21-.6,1.4-1.2,2.9-2,4.3,6.3,3.8,11.3,8.1,12.7,11.7.9,2.8.5,5.6-1,8.2-2.2,3.7-6.7,6.8-11.1,7.6ZM68.7,338.4c.1.3.2.6.4.9,2.8,5.4,6.9,9.8,11.7,13.2,1.1,0,2.1-.2,3-.5,3.7-.7,7.5-3.3,9.2-6.3,1.1-1.9,1.4-3.8.8-5.7-1.1-2.8-5.5-6.6-11.4-10.1-1.8,2.8-4.1,5.3-7.3,7-2.1,1-4.3,1.4-6.5,1.4ZM75.6,352.4c.1,0,.2,0,.3,0-3.8-3.3-7.1-7.2-9.5-11.8-.4-.8-.7-1.6-.9-2.5-2.1-.3-4-.8-5.3-1.3-.5-.2-1.1-.4-1.6-.6-5.3-2.1-15.1-5.9-12.9-13.3,0-.1,0-.2.1-.3,1.4-2.4,4.7-5.2,12.4-4.5,3,.3,6.4,1,9.8,2.1.6-1.3,1.2-2.7,1.8-4-16.6-6.5-32.9-10.7-49-12.6-9.5-.7-15.7,1.2-17.4,5.3-1.9,4.6,1.9,11.8,10,18.7,17.1,14.8,40,20.7,62.2,24.9ZM67.9,335.4c2,0,4.1-.2,6-1.1,2.5-1.3,4.5-3.4,6-5.8-3.2-1.8-6.7-3.4-10.3-4.7-1.6,4.5-2.2,8.2-1.7,11.5ZM48.4,323.9c-1.1,4.3,5.2,7.1,11.2,9.5.6.2,1.1.4,1.6.6,1,.3,2.2.7,3.7,1-.5-4.5.7-8.8,2-12.1-3.1-1-6.1-1.6-8.9-1.9-3.3-.3-7.6,0-9.5,2.9ZM70.8,321.1c3.6,1.3,7.2,3,10.5,4.8.7-1.3,1.3-2.7,1.8-4.1-3.5-1.6-7.1-3.2-10.6-4.6-.6,1.3-1.2,2.6-1.8,3.9ZM73.8,314.5c3.5,1.4,7,2.9,10.5,4.6,0-.1.1-.3.2-.4.5-1.4,1.1-2.8,1.7-4.1h0c6.8-20.2,14.2-41.7,22.8-62.8,1.1-2.6,2.1-5.3,3.1-8,3.5-9.3,7.1-18.9,14.4-26,3.5-3.3,7.8-5.9,13.2-7.9,0,0,.1,0,.2,0,57.3-14.3,71-59.9,82.9-118.1,0-.3.1-.8.2-1.2.4-2.5,1.2-6.7-.1-8.1-.3.1-1,.7-1.6,1.8-2.1,6.8-4.1,13.9-6.1,20.9-8.1,29.3-16.5,59.6-41,79.3-20.2,17.4-44.6,17.4-60.7,0-6.1-6.4-10-15.4-12.4-28.3-2-7.5-1.7-13.1.9-17.1,1.3-1.9,3-3.4,5.3-4.5-.3-21.8,7.6-42.7,15.2-63,2.7-7.1,5.4-14.4,7.8-21.5,0-.4,0-.7,0-.9-.9.5-2.5,2.1-3.5,3.9-3.1,4.8-5.6,9.7-8.3,15-17.4,37.6-34.5,81-16.4,118.9.6,1.3,1.3,2.6,1.9,3.9,1.5,3,3,6,4.3,9.2,2.2,5.3,3.3,10.2,3.3,14.6-.1,9.8-3.9,19.1-7.5,28.2l-.6,1.4c-3,7.2-6,14.6-8.9,21.7-6.6,16.2-13.5,32.8-20.8,49.1ZM87.6,315h0,0ZM110.3,136.2c0,2.3.3,4.6.6,6.9,1.3,13.7,8.3,25.9,18.6,32.7,8,5,16,6.6,23.7,4.7,16.1-4,28.4-22.5,36.3-36.1,0,0,0,0,0-.1,5.1-6.9,16.3-42.2,10.1-48.8-2.1-2.3-6.6-.1-10,2-7.5,5.5-14.8,11.9-22.3,19.2,2.3.4,4.4,1.2,5.9,2.6,1.7,1.5,4.3,5,1.7,11.2-2.9,6-10.7,11.3-17.2,9.5,0,0-.1,0-.2,0-3.3-1.3-4.4-3.6-4.7-5.2-.9-4.7,3.2-10.6,6.2-13.8-.3.1-.5.3-.8.4-2.9,1.5-5.2,3.5-7.7,5.6-2.1,1.8-4.2,3.6-6.5,5-6.2,4.2-13.2,3.8-20,3.4-3.6-.2-7.1-.4-10.4,0-1.2.2-2.3.4-3.3.8ZM158.7,137c4.9,1.3,11.3-3.2,13.6-7.9,1.3-3.2,1-5.9-1-7.7-1.6-1.4-4.1-2.1-6.7-2-.8.8-1.5,1.5-2.3,2.3-2.9,2.8-7.1,8.5-6.4,12.2.3,1.3,1.2,2.3,2.8,3Z"
      style="fill: inherit;" />
  </g>
</svg>